<svg width="16" height="16" viewBox="0 0 16 16" fill="none" xmlns="http://www.w3.org/2000/svg">
  <g stroke="#FFFFFF" stroke-width="1.1" stroke-linejoin="round" stroke-linecap="round">
    <path d="M0.8 4.8 Q4.6 1.9 8 1.6 Q11.4 1.9 15.2 4.8"/>
    <path d="M1.9 5.9 H14.1"/>
    <path d="M3.4 5.9 V7.6"/>
    <path d="M2.6 7.6 A0.9 0.9 0 0 0 4.2 7.6 A0.85 0.85 0 0 1 3.4 9.0 A0.85 0.85 0 0 1 2.6 7.6"/>
    <path d="M12.6 5.9 V7.6"/>
    <path d="M11.8 7.6 A0.9 0.9 0 0 0 13.4 7.6 A0.85 0.85 0 0 1 12.6 9.0 A0.85 0.85 0 0 1 11.8 7.6"/>
    <path d="M5.6 14.2 V8.2 H10.4 V14.2"/>
    <path d="M8.0 8.2 V14.2"/>
    <path d="M1.8 14.2 H14.2"/>
  </g>
</svg>
